<svg id="instagram-logo" width="53" height="53" viewBox="0 0 53 53" xmlns="http://www.w3.org/2000/svg">
<!-- <g filter="url(#filter0_d_25_669)"> -->
<path d="M34.9375 0H18.0625C10.2972 0 4 6.29719 4 14.0625V30.9375C4 38.7028 10.2972 45 18.0625 45H34.9375C42.7028 45 49 38.7028 49 30.9375V14.0625C49 6.29719 42.7028 0 34.9375 0ZM44.7812 30.9375C44.7812 36.3656 40.3656 40.7812 34.9375 40.7812H18.0625C12.6344 40.7812 8.21875 36.3656 8.21875 30.9375V14.0625C8.21875 8.63438 12.6344 4.21875 18.0625 4.21875H34.9375C40.3656 4.21875 44.7812 8.63438 44.7812 14.0625V30.9375Z"/>
<path d="M26.5 11.25C20.2872 11.25 15.25 16.2872 15.25 22.5C15.25 28.7128 20.2872 33.75 26.5 33.75C32.7128 33.75 37.75 28.7128 37.75 22.5C37.75 16.2872 32.7128 11.25 26.5 11.25ZM26.5 29.5312C22.6244 29.5312 19.4688 26.3756 19.4688 22.5C19.4688 18.6216 22.6244 15.4688 26.5 15.4688C30.3756 15.4688 33.5312 18.6216 33.5312 22.5C33.5312 26.3756 30.3756 29.5312 26.5 29.5312Z"/>
<path d="M38.5901 11.9058C39.418 11.9058 40.0892 11.2347 40.0892 10.4067C40.0892 9.57884 39.418 8.90768 38.5901 8.90768C37.7622 8.90768 37.0911 9.57884 37.0911 10.4067C37.0911 11.2347 37.7622 11.9058 38.5901 11.9058Z"/>
<!-- </g>
<defs>
<filter id="filter0_d_25_669" x="0" y="0" width="53" height="53" filterUnits="userSpaceOnUse" color-interpolation-filters="sRGB">
<feFlood flood-opacity="0" result="BackgroundImageFix"/>
<feColorMatrix in="SourceAlpha" type="matrix" values="0 0 0 0 0 0 0 0 0 0 0 0 0 0 0 0 0 0 127 0" result="hardAlpha"/>
<feOffset dy="4"/>
<feGaussianBlur stdDeviation="2"/>
<feComposite in2="hardAlpha" operator="out"/>
<feColorMatrix type="matrix" values="0 0 0 0 0 0 0 0 0 0 0 0 0 0 0 0 0 0 0.25 0"/>
<feBlend mode="normal" in2="BackgroundImageFix" result="effect1_dropShadow_25_669"/>
<feBlend mode="normal" in="SourceGraphic" in2="effect1_dropShadow_25_669" result="shape"/>
</filter>
</defs> -->
</svg>
